<svg xmlns="http://www.w3.org/2000/svg" width="89.985" height="90.001" viewBox="0 0 253.958 254.003">
    <path d="M3.362 118.76 118.716 3.404c4.54-4.537 11.942-4.537 16.482 0L250.553 118.76c4.54 4.537 4.54 11.938 0 16.478L135.198 250.597c-4.54 4.54-11.941 4.54-16.482 0L3.362 135.24c-4.48-4.48-4.484-11.994 0-16.478" style="fill:#fcd116;fill-opacity:1;fill-rule:nonzero;stroke:none"/>
    <path d="M5.676 121.021 120.978 5.723c3.27-3.27 8.69-3.263 11.96 0L248.236 121.02c3.274 3.274 3.26 8.682 0 11.96L132.938 248.278c-3.278 3.263-8.682 3.27-11.96 0L5.676 132.98c-3.256-3.277-3.27-8.685 0-11.959" style="fill:#000;fill-opacity:1;fill-rule:evenodd;stroke:none"/>
    <path d="M8.922 124.184 124.139 8.967c1.524-1.574 4.114-1.574 5.638 0L244.99 124.184c1.574 1.52 1.574 4.113 0 5.634L129.777 245.03c-1.524 1.577-4.117 1.58-5.638 0L8.922 129.818c-1.57-1.52-1.57-4.114 0-5.634" style="fill:#fcd116;fill-opacity:1;fill-rule:evenodd;stroke:none"/>
    <path d="m153.188 135.796 22.384-3.651-14.108-18.327c-7.313 6.375-8.22 14.03-8.276 21.978m-6.16 1.34c-.035-.793-.165-2.07-.165-2.963 0-9.07 2.935-17.882 10.897-25.206l-8.294-9.93-12.83 39.154 10.392-1.054zM97.767 98.17l.712-2.177 45.71-.063-12.16 36.865-.526-3.842h1.4l-.173-2.452h-6.117l.177 2.276h1.57l.349 4.194S97.943 98.345 97.767 98.17M77.524 133.58c6.138-4.876 10.915-9.522 14.362-18.821 5.436 4.935 8.54 12.068 8.54 19.413 0 14.58-11.892 26.476-26.475 26.476-14.584 0-26.476-11.896-26.476-26.476 0-14.584 11.892-26.476 26.476-26.476 4.653 0 9.412 1.344 13.246 3.61-2.593 8.205-5.122 12.435-13.112 18.866-1.94.084-3.415 1.64-3.415 3.5a3.507 3.507 0 0 0 3.496 3.495c1.926 0 3.358-1.573 3.358-3.587m76.602 7.842c2.992 11.158 13.646 19.226 25.436 19.226 14.58 0 26.472-11.896 26.472-26.476 0-14.584-11.892-26.476-26.472-26.476-4.657 0-10.04 1.097-13.967 3.397l14.369 19.079c1.757.028 3.284 1.598 3.284 3.5a3.504 3.504 0 0 1-3.492 3.495 3.735 3.735 0 0 1-1.567-.363l-24.063 4.618zm-65.038-36.248 9.377-25.873-2.97-5.07 5.944-6.466h12.76l.176 3.67h-11.19l-2.268 2.447 2.621 4.72-3.298 11.688h45.797l.702-2.141c-3.683-.476-10.033-2.745-11.55-4.06-1.513-1.317-.187-2.53 1.538-2.587 9.038-.384 22.469-1.139 25.023-1.153 2.55-.01 2.811 1.277 1.104 3.143-1.707 1.866-3.203 3.55-9.673 4.551l-1.746 4.72 10.837 13.423c5.108-3.097 11.285-4.71 17.29-4.71 18.009 0 32.695 14.687 32.695 32.696 0 18.01-14.686 32.696-32.695 32.696-14.817 0-27.845-10.22-31.673-24.339l-9.955 1.79c-.427 1.174-1.425 2.073-2.614 2.779l1.778 8.424h2.275l.173 2.269-7.168.352v-2.448h1.753l-2.17-8.417c-3.22-.526-4.907-3.288-3.947-6.026l-32.533-36.79-1.457 3.947c7.898 6.22 12.625 15.8 12.625 25.763 0 18.01-14.693 32.696-32.698 32.696-18.01 0-32.7-14.687-32.7-32.696 0-18.01 14.69-32.695 32.7-32.695 5.235 0 10.6 1.273 15.137 3.697" style="fill:#000;fill-opacity:1;fill-rule:evenodd;stroke:none"/>
</svg>
