<svg xmlns="http://www.w3.org/2000/svg" width="90" height="89.992" viewBox="0 0 254 253.978">
    <path d="m135.227 250.564 115.34-115.337c2.167-2.166 3.433-5.165 3.433-8.234 0-3.076-1.266-6.068-3.432-8.244L135.227 3.41a11.652 11.652 0 0 0-16.475 0L3.404 118.75C1.245 120.91 0 123.938 0 126.993c0 3.051 1.245 6.075 3.404 8.234l115.348 115.337c2.794 2.798 7 3.997 10.852 3.143 2.268-.518 3.845-1.704 5.623-3.143" style="fill:#fcd116;fill-opacity:1;fill-rule:nonzero;stroke:none"/>
    <path d="M120.82 248.518 5.456 133.156c-1.605-1.605-2.533-3.884-2.533-6.163 0-2.272.928-4.583 2.533-6.188L120.82 5.457a8.756 8.756 0 0 1 6.16-2.53c2.31 0 4.568.91 6.198 2.53l115.337 115.348a8.84 8.84 0 0 1 2.554 6.188 8.788 8.788 0 0 1-2.554 6.163L133.177 248.518c-1.616 1.605-3.923 2.529-6.198 2.529-2.269 0-4.547-.924-6.16-2.53" style="fill:#000;fill-opacity:1;fill-rule:evenodd;stroke:none"/>
    <path d="M124.244 245.073a4.034 4.034 0 0 0 2.745 1.129c1.005 0 2.032-.42 2.737-1.129l115.359-115.34c.73-.72 1.114-1.726 1.114-2.738 0-1.027-.384-2.022-1.114-2.745L129.726 8.913a3.902 3.902 0 0 0-2.737-1.136 3.962 3.962 0 0 0-2.745 1.136L8.91 124.25a3.937 3.937 0 0 0-1.139 2.745 3.832 3.832 0 0 0 1.14 2.737l115.333 115.341z" style="fill:#fcd116;fill-opacity:1;fill-rule:evenodd;stroke:none"/>
    <path d="M174.278 188.289h-19.403V66.909h19.403v121.38zM120.599 66.907v36.336s-16.778 20.395-20.285 24.66v60.385H80.911v-67.339s16.775-20.394 20.285-24.659V66.907h19.403zM113.41 188.289h7.19v-12.683h-7.19v12.683zM113.41 166.73h7.19v-12.678h-7.19v12.678z" style="fill:#000;fill-opacity:1;fill-rule:nonzero;stroke:none"/>
    <path d="M113.41 145.176h7.19v-12.68h-7.19v12.68z" style="fill:#000;fill-opacity:1;fill-rule:nonzero;stroke:none"/>
</svg>
