<svg xmlns="http://www.w3.org/2000/svg" width="90" height="89.992" viewBox="0 0 254 253.978">
    <path d="M118.773 250.564 3.433 135.227C1.266 133.06 0 130.062 0 126.993c0-3.076 1.266-6.068 3.433-8.244L118.773 3.41a11.652 11.652 0 0 1 16.475 0L250.596 118.75c2.159 2.162 3.404 5.189 3.404 8.244 0 3.051-1.245 6.075-3.404 8.234L135.248 250.564c-2.794 2.798-7 3.997-10.851 3.143-2.269-.518-3.846-1.704-5.624-3.143" style="fill:#fcd116;fill-opacity:1;fill-rule:nonzero;stroke:none"/>
    <path d="m133.18 248.518 115.363-115.362c1.605-1.605 2.533-3.884 2.533-6.163 0-2.272-.928-4.583-2.533-6.188L133.18 5.457a8.756 8.756 0 0 0-6.16-2.53c-2.31 0-4.568.91-6.198 2.53L5.486 120.805a8.84 8.84 0 0 0-2.554 6.188c0 2.293.934 4.543 2.554 6.163l115.337 115.362c1.616 1.605 3.923 2.529 6.198 2.529 2.269 0 4.548-.924 6.16-2.53" style="fill:#000;fill-opacity:1;fill-rule:evenodd;stroke:none"/>
    <path d="M129.756 245.073a4.034 4.034 0 0 1-2.745 1.129 3.941 3.941 0 0 1-2.737-1.129L8.915 129.733c-.73-.72-1.114-1.726-1.114-2.738 0-1.027.384-2.022 1.114-2.745L124.274 8.913a3.902 3.902 0 0 1 2.737-1.136c1.002 0 2.036.423 2.745 1.136L245.09 124.25a3.937 3.937 0 0 1 1.14 2.745 3.832 3.832 0 0 1-1.14 2.737L129.756 245.073z" style="fill:#fcd116;fill-opacity:1;fill-rule:evenodd;stroke:none"/>
    <path d="m113.299 155.28.08 39.652 27.207-.067V98.243l15.057 4.66c.55.173 1.093.314 1.668.346 1.503.084 3.03-.547 4.093-1.616 1.224-1.249 1.728-3.034 1.457-4.756-.142-.874-.547-1.608-1.066-2.31L127.03 47.35 92.167 94.567c-.716.966-1.121 2.113-1.121 3.32 0 2.204 1.284 4.137 3.305 5.016 1.097.473 2.1.515 3.228.268.296-.067.593-.233.74-.268l15.41-3.32c-1.213 5.341-2.423 10.704-3.954 15.967-2.265 7.793-5.211 15.381-8.619 22.747-3.376 7.278-7.214 14.344-11.63 21.04-2.929 4.438-6.122 8.717-9.297 12.975l14.98 10.82c1.34-1.754 2.68-3.503 3.982-5.289 3.002-4.099 5.803-8.357 8.46-12.689 1.982-3.231 3.824-6.54 5.648-9.874" style="fill:#000;fill-opacity:1;fill-rule:evenodd;stroke:none"/>
</svg>
